# xmcd
#
# Track frame offsets: 
#        150
#        8635
#        19426
#        30479
#        45004
#        57407
#        69404
#        81223
#        93064
#        106242
#        119057
#        130969
#        141713
#        151829
#        163179
#        172366
#        185010
#        195965
#        207752
#        218596
#        229593
#        243236
#        256043
#        268386
#        279530
#        292734
#
# Disc length: 4058 seconds
#
# Revision: 0
# Processed by: cddbd v1.5.2PL0 Copyright (c) Steve Scherf et al.
# Submitted via: ExactAudioCopy v1.3
#
DISCID=6e0fd81a
DTITLE=Lefty Frizzell - CD07_Recordings 1965-67
DYEAR=2018
DGENRE=Country
TTITLE0=It's Bad (When It's Thataway)
TTITLE1=I Don't Trust You Anymore
TTITLE2=A Little Unfair
TTITLE3=Woman Let Me Sing You A Song
TTITLE4=Preparations To Be Blue
TTITLE5=Stranger
TTITLE6=Love Looks Good On You
TTITLE7=Mama
TTITLE8=It's Hard To Please You
TTITLE9=You Don't Want Me To Get Well
TTITLE10=Writing On The Wall
TTITLE11=I Just Couldn't See The Forest (For The Trees)
TTITLE12=I'm Not Guilty
TTITLE13=It Couldn't Happen To A Nicer Guy
TTITLE14=Everything Keeps Coming Back (But You)
TTITLE15=Heart (Don't Love Her Anymore)
TTITLE16=You Don't Have To Be Present To Win
TTITLE17=My Feet Are Getting Cold
TTITLE18=Is There Anything I Can Do
TTITLE19=The Old Gang's Gone
TTITLE20=A Song From A Lonely Heart
TTITLE21=You Gotta Be Puttin' Me On
TTITLE22=There In The Mirror
TTITLE23=Get This Stranger Out Of Me
TTITLE24=Money Tree
TTITLE25=Hobo's Pride
EXTD=
EXTT0=
EXTT1=
EXTT2=
EXTT3=
EXTT4=
EXTT5=
EXTT6=
EXTT7=
EXTT8=
EXTT9=
EXTT10=
EXTT11=
EXTT12=
EXTT13=
EXTT14=
EXTT15=
EXTT16=
EXTT17=
EXTT18=
EXTT19=
EXTT20=
EXTT21=
EXTT22=
EXTT23=
EXTT24=
EXTT25=
PLAYORDER=
